<?xml version="1.0" encoding="utf-8"?>
<!-- Generator: Adobe Illustrator 28.2.0, SVG Export Plug-In . SVG Version: 6.00 Build 0)  -->
<svg version="1.1" id="Layer_1" xmlns="http://www.w3.org/2000/svg" xmlns:xlink="http://www.w3.org/1999/xlink" x="0px" y="0px"
	 viewBox="0 0 448 512" style="enable-background:new 0 0 448 512;" xml:space="preserve">
<style type="text/css">
	.st0{fill:none;stroke:#000111;stroke-width:40;stroke-linejoin:round;stroke-miterlimit:10;}
</style>
<path class="st0" d="M224-48c-17.7,0-32,14.3-32,32V3.2C119,18,64,82.6,64,160v18.8c0,47-17.3,92.4-48.5,127.6l-7.4,8.3
	c-8.4,9.4-10.4,22.9-5.3,34.4S19.4,368,32,368h384c12.6,0,24-7.4,29.2-18.9s3.1-25-5.3-34.4l-7.4-8.3
	c-31.2-35.2-48.5-80.5-48.5-127.6V160c0-77.4-55-142-128-156.8V-16C256-33.7,241.7-48,224-48z M269.3,465.6
	c12-12,18.7-28.3,18.7-45.3h-64h-64c0,17,6.7,33.3,18.7,45.3s28.3,18.7,45.3,18.7S257.3,477.6,269.3,465.6z"/>
</svg>
