<?xml version="1.0" encoding="UTF-8"?>
<svg id="Layer_2" data-name="Layer 2" xmlns="http://www.w3.org/2000/svg" viewBox="0 0 160.85 196.73">
  <defs>
    <style>
      .cls-1 {
        stroke-width: 0px;
      }
    </style>
  </defs>
  <g id="Layer_1-2" data-name="Layer 1">
    <path class="cls-1" d="M.12,98.18c0-17.54-.01-35.07,0-52.61,0-4.33.38-4.69,4.87-4.7,19.43-.02,60.47-.04,61.56-.05,2.24-.01,3.23-1.07,3.21-3.37-.06-11.3-.17-35.19-.02-35.79.25-.98,3.06-2.15,3.74-1.47,13.99,13.88,69.45,69.38,83.31,83.12,2.73,2.71,4.07,5.59,4.05,9.56-.16,34.08-.14,68.15-.21,102.23,0,.92-2.71,2.09-3.39,1.41-12.86-12.7-25.67-25.46-38.51-38.18-2.04-2.02-3-4.38-2.99-7.28.1-20.34.13-40.67.21-61.01.01-3.13-.77-4.07-3.98-4.07-21.06-.02-42.12-.02-63.18,0-3.16,0-3.99.87-3.98,3.76.05,30.37.11,60.74.13,91.11,0,4.43-.14,8.86-.34,13.28-.04.9-3.04,2.15-3.71,1.5-8.42-8.2-16.78-16.45-25.11-24.73-4.55-4.52-9.15-9.01-13.43-13.79-1.31-1.46-2.22-3.83-2.24-5.79C-.06,133.61.01,115.9.01,98.18c.03,0,.07,0,.1,0Z"/>
  </g>
</svg>